<?xml version="1.0" encoding="UTF-8" standalone="no"?>
<!-- Created with Inkscape (http://www.inkscape.org/) -->

<svg
   version="1.1"
   id="svg1"
   width="1333.3333"
   height="1086.6667"
   viewBox="0 0 1333.3333 1086.6667"
   sodipodi:docname="34978286.jpg"
   inkscape:export-filename="34978286.png"
   inkscape:export-xdpi="96"
   inkscape:export-ydpi="96"
   xmlns:inkscape="http://www.inkscape.org/namespaces/inkscape"
   xmlns:sodipodi="http://sodipodi.sourceforge.net/DTD/sodipodi-0.dtd"
   xmlns="http://www.w3.org/2000/svg"
   xmlns:svg="http://www.w3.org/2000/svg">
  <defs
     id="defs1" />
  <sodipodi:namedview
     id="namedview1"
     pagecolor="#ffffff"
     bordercolor="#000000"
     borderopacity="0.25"
     inkscape:showpageshadow="2"
     inkscape:pageopacity="0.0"
     inkscape:pagecheckerboard="0"
     inkscape:deskcolor="#d1d1d1" />
  <g
     inkscape:groupmode="layer"
     inkscape:label="Image"
     id="g1">
    <path
       style="fill:#ffffff"
       d="m 902.55877,710.72116 c 33.00647,-16.66162 41.7016,-50.65775 17.64888,-69.00337 -9.4815,-7.23178 -10.87138,-5.35996 -10.8874,14.6625 -0.0268,33.55438 -25.80602,63.5915 -42.51233,49.53406 -14.89634,-12.53445 -7.86095,-37.95731 22.48406,-81.24764 30.00303,-42.80244 35.01609,-60.6806 19.64323,-70.05398 -13.60288,-8.29417 -29.98416,1.50059 -57.0139,34.08998 -20.0646,24.1916 -20.35,24.14268 -9.772,-1.67505 14.78302,-36.08096 14.63513,-41.43667 -1.10731,-40.10038 -15.37999,1.30552 -23.92614,8.91032 -44.32003,39.4382 -7.70409,11.53234 -15.86632,23.0679 -18.1383,25.63457 l -4.13087,4.66666 0.77726,-4.66666 c 0.4275,-2.56667 5.62557,-14.18077 11.55128,-25.80911 16.61875,-32.61188 14.40915,-49.11062 -6.05981,-45.2476 -6.55891,1.23784 -7.38824,2.62748 -7.38824,12.3799 0,8.97867 -4.56001,27.31072 -10.94731,44.01014 -4.81353,12.58485 -4.22221,27.17083 1.30168,32.10807 9.74179,8.70721 16.4712,4.19642 35.96553,-24.10807 8.3337,-12.1 17.53721,-24.7 20.45223,-28 l 5.30003,-6 -2.67817,5.56536 c -24.18871,50.26532 3.44248,67.96418 35.94548,23.02449 15.8376,-21.89758 34.39917,-39.29565 38.03963,-35.65518 2.05134,2.05133 -12.77524,27.05235 -27.84898,46.9598 -27.08847,35.77496 -33.94102,58.33585 -24.9705,82.21133 9.06374,24.12361 31.82814,30.82962 58.66586,17.28198 z m 214.65043,-11.44082 c 50.1055,-11.81071 63.8557,-77.62393 31.8774,-152.57611 -10.9019,-25.55229 -12.2374,-30.32131 -12.3323,-44.03753 -0.07,-10.10877 0.2843,-12.58755 1.7543,-12.27489 46.3685,9.8621 86.0011,-7.27347 79.0404,-34.17393 -8.1433,-31.47025 -60.8739,-28.24317 -96.2157,5.88834 l -7.3334,7.0822 -6,-1.2001 c -3.3,-0.66006 -23.1,-4.57749 -44,-8.7054 -45.3456,-8.95612 -42.0453,-6.5317 -29.8825,-21.95198 27.5186,-34.88889 49.5532,-90.61492 40.0092,-101.18461 -6.2665,-6.94002 -10.1831,-4.47371 -22.5297,14.18703 -17.1079,25.85709 -33.9109,40.9606 -50.5367,45.42526 -10.72996,2.88141 -10.043,-2.1295 3.2079,-23.39938 18.8316,-30.22784 18.4185,-42.91443 -1.7473,-53.66269 -32.83098,-17.49873 -78.31813,32.68329 -47.99035,52.94357 6.18159,4.12956 6.32509,4.04066 7.20269,-4.46252 2.46729,-23.90573 38.29116,-57.00293 38.25978,-35.34765 -0.007,5.14652 -1.02642,7.01115 -11.01792,20.16225 -17.41055,22.91627 -23.31287,49.82607 -12.95802,59.07813 6.48513,5.79447 14.34145,4.76008 32.90922,-4.33293 22.6982,-11.11579 23.0737,-11.2497 23.0737,-8.22678 0,2.65753 -21.0618,35.02943 -27.5818,42.393 l -3.7515,4.23691 -20.66666,-2.50094 c -11.36667,-1.37553 -28.51666,-2.53214 -38.11111,-2.57026 -20.63292,-0.082 -20.93213,-0.2403 -12.72024,-6.73143 10.55751,-8.34524 25.49802,-27.18272 25.49802,-32.14875 0,-3.90026 -3.60963,-1.712 -15.46777,9.37701 -16.00772,14.96945 -34.97785,24.85491 -39.33502,20.49775 -4.49053,-4.49053 8.27951,-21.04796 26.01714,-33.73341 19.89758,-14.23019 2.76229,-29.04411 -18.6543,-16.12715 -9.88233,5.96031 -13.12842,6.80261 -12.06259,3.13001 4.32932,-14.9179 4.13794,-17.10637 -1.94346,-22.22353 -20.25317,-17.04192 -45.14024,13.21861 -26.93824,32.75456 10.11811,10.85963 -42.99465,40.23294 -53.59023,29.63736 -6.43623,-6.43624 9.84257,-32.60836 36.93063,-59.37493 17.35837,-17.15235 17.36198,-17.29628 0.69176,-27.59904 l -4.87529,-3.01309 -9.05298,5.46505 c -25.83285,15.59465 -33.42193,11.65596 -22.53517,-11.69564 11.38307,-24.41615 8.62323,-35.12707 -10.17324,-39.48227 -18.09569,-4.19283 -35.86432,30.58915 -27.80917,54.43626 8.23726,24.38627 -50.36677,72.96815 -73.94031,61.29544 -7.41941,-3.6738 -7.01339,-4.50473 5.79847,-11.86683 55.6685,-31.98892 69.57868,-103.27378 18.07606,-92.63361 -31.08334,6.42166 -51.50676,35.6717 -51.97705,74.44054 l -0.24836,20.4736 -4.14211,2.51898 c -15.66464,9.52623 -39.47623,10.80715 -42.18603,2.26934 -3.27777,-10.32735 16.45179,-50.97601 47.3527,-97.56043 12.22935,-18.43625 23.90558,-36.37077 25.94717,-39.85448 l 3.71199,-6.33403 -5.79729,-2.63068 c -21.63831,-9.81897 -45.13202,6.06332 -79.39758,53.67458 -7.91984,11.00445 -16.82353,23.07441 -19.78598,26.82214 -2.96245,3.74772 -8.32551,10.98 -11.91791,16.07173 -18.13765,25.70755 -34.08861,38.99597 -34.00672,28.33029 0.12044,-15.68682 29.29088,-62.49273 72.2089,-115.86396 8.67277,-10.78512 15.76866,-20.82129 15.76866,-22.3026 0,-9.25854 -30.68173,-12.06208 -49.51921,-4.52481 -9.54278,3.81826 -28.15464,26.10246 -57.15865,68.43672 -39.73707,58.00024 -64.4819,81.47974 -97.55721,92.56859 -27.62454,9.26142 -37.75669,-2.73216 -27.14306,-32.12967 13.68699,-37.9101 53.84044,-69.49231 89.37814,-70.29929 15.88884,-0.3608 15.49487,-4.73298 -1.10608,-12.27516 -26.65467,-12.10981 -84.10398,9.39252 -107.24184,40.13885 -32.44278,43.111 -15.86943,92.80906 31.70863,95.08379 32.38401,1.5483 59.5014,-16.11954 88.64308,-57.75377 3.59305,-5.13333 13.79777,-18.93333 22.67716,-30.66667 8.87938,-11.73333 21.29784,-29.13333 27.59656,-38.66667 14.73117,-22.29614 33.05582,-42.06569 33.05582,-35.66225 0,1.99371 -13.70746,24.32951 -28.84113,46.99559 -34.81694,52.14615 -42.85067,79.34476 -26.90603,91.09175 14.31788,10.54849 33.31225,-5.92108 84.2968,-73.09175 25.72379,-33.89035 36.62128,-46.69575 38.30532,-45.01171 2.88085,2.88085 -4.34916,16.13686 -23.90939,43.83711 -35.29964,49.98963 -41.27339,69.92353 -25.87484,86.34206 12.41343,13.23569 33.79967,14.45547 61.56496,3.51142 l 7.14598,-2.81668 9.71612,4.93165 c 23.87926,12.12049 54.41077,0.913 89.05378,-32.6898 l 14.78175,-14.3379 9.49166,0.59083 c 5.96084,0.37105 10.60859,-0.007 12.49423,-1.0161 3.52089,-1.88432 3.61692,-2.08455 -5.11237,10.65912 -44.70964,65.27049 2.481,89.63967 66.64501,34.41538 7.50072,-6.45566 9.91776,-7.84463 12.51611,-7.19249 l 3.22023,0.80823 -3.91783,6.17777 c -11.89316,18.75357 -9.69991,31.31119 6.16644,35.30638 l 5.71299,1.43855 -12.262,5.96804 c -42.73816,20.80111 -58.97062,52.59049 -36.62205,71.72003 28.31151,24.2336 83.16085,7.8227 144.49795,-43.23374 18.14478,-15.10357 16.09048,-14.69874 44.95648,-8.8595 13.3172,2.69393 34.2705,6.57992 46.5629,8.63555 26.6351,4.45414 24.2469,2.58559 21.7259,16.99828 -4.9268,28.16615 0.8587,57.34554 19.5269,98.4842 18.6863,41.17875 18.1533,61.49561 -2.1056,80.25175 -16.3128,15.10273 -38.5651,21.30927 -57.0911,15.92362 -33.1381,-9.63352 -10.9378,-53.94456 31.45,-62.77314 19.7797,-4.11975 10.3977,-12.14043 -16.0226,-13.69769 -61.1826,-3.60621 -82.7166,63.14959 -26.321,81.59568 17.8218,5.82918 42.6008,7.53851 57.697,3.98008 z M 886.59916,519.22811 c -9.89532,-4.11324 -12.16524,-15.72699 -5.14527,-26.32521 20.11229,-30.36402 62.37458,-45.81693 99.54605,-36.39832 12.09768,3.06535 12.33228,2.13196 -4.45328,17.71793 -37.57023,34.88525 -72.38601,52.30547 -89.9475,45.0056 z m 263.49124,-43.3464 c -11.2657,-1.53121 -10.8673,-1.13191 -7.5726,-7.59009 9.4536,-18.53045 53.1742,-30.60767 56.9106,-15.72074 3.6399,14.50288 -22.6731,26.93509 -49.338,23.31083 z M 693.33329,378.94683 c 0,-27.76295 22.18627,-57.61347 42.82096,-57.61347 19.94911,0 1.71668,32.57992 -33.05302,59.06317 -10.20105,7.7699 -9.76794,7.83418 -9.76794,-1.4497 z m 178.64355,5.01003 c -1.98557,-3.71008 -0.83929,-8.06066 3.47458,-13.1874 5.24812,-6.23704 7.71944,-5.49961 6.86854,2.04955 -1.11267,9.8716 -7.39833,16.64024 -10.34312,11.13785 z M 784.44495,335.2365 c -2.92307,-7.61741 4.51432,-31.24156 10.72664,-34.07207 8.41292,-3.83319 9.56693,3.45602 3.06544,19.36271 -5.16674,12.64109 -11.85041,19.76927 -13.79208,14.70936 z M 331.99998,685.92931 c 26.49014,-10.75683 47.24052,-28.01924 83.6926,-69.62453 26.91932,-30.72491 31.64665,-34.9714 38.93123,-34.9714 3.56797,0 3.4423,0.91964 -1.29189,9.45364 -27.74918,50.02154 15.55744,80.28295 57.56153,40.22234 16.07156,-15.32796 15.37046,-25.73802 -0.7502,-11.13907 -15.06806,13.64571 -39.09735,20.6846 -44.17223,12.93937 -5.66616,-8.64766 1.7099,-24.63006 23.44924,-50.80962 23.13437,-27.85952 23.67288,-31.64562 4.77848,-33.59569 l -7.34112,-0.75767 -7.04567,6.82717 c -6.40817,6.20945 -20.01624,14.53719 -27.41332,16.77615 l -2.93468,0.88828 3.4645,-8.40245 c 10.29269,-24.96283 1.97063,-48.50199 -17.72488,-50.13529 -32.94576,-2.73212 -47.61863,52.44465 -18.30827,68.84755 6.62918,3.70988 -43.05516,65.11002 -65.39203,80.81177 -50.68343,35.62806 -47.23568,3.74772 7.5314,-69.64055 33.44744,-44.8198 36.21992,-61.99458 10.69217,-66.2353 -23.19604,-3.85337 -42.20925,10.92754 -65.67393,51.05509 -23.17066,39.62474 -22.04004,28.14263 2.23355,-22.68301 l 8.71305,-18.24394 11.50023,-7.61192 c 49.05973,-32.47224 69.2346,-55.7313 70.58029,-81.37011 1.64657,-31.3712 -17.5467,-36.27747 -42.49986,-10.86401 -45.01449,45.84488 -101.40565,188.14483 -71.99925,181.6861 7.32307,-1.60842 20.95477,-16.48182 29.34574,-32.01883 12.58939,-23.31095 24.97158,-38.16441 40.23512,-48.26534 18.14266,-12.00625 9.23685,14.67041 -16.33559,48.932 -31.5091,42.21544 -42.49287,62.793 -42.49287,79.60829 0,19.98399 15.95468,27.54361 38.66666,18.32098 z m 88.48047,-121.52974 c -2.80208,-11.16438 12.30115,-47.37002 18.23153,-43.70484 5.34052,3.30062 3.98985,13.81343 -3.95218,30.76128 -7.26171,15.49609 -12.45679,20.20519 -14.27935,12.94356 z m -87.22663,-58.90779 c 13.75469,-27.40942 33.70279,-55.28761 46.60746,-65.13559 l 4.52796,-3.45544 -0.66173,9.21631 c -1.26431,17.60873 -12.95281,34.91835 -39.45053,58.42269 -19.18487,17.01761 -19.08073,17.00862 -11.02316,0.95203 z m 298.98255,163.79826 c 20.32997,-5.64656 30.21129,-24.41326 28.77788,-54.65525 l -0.69427,-14.64754 5.17332,-7.22446 c 6.93795,-9.68873 6.77056,-9.94447 -4.35472,-6.65358 -1.75268,0.51845 -3.05598,-1.96146 -6.47105,-12.31315 -2.35199,-7.1293 -4.54919,-13.67339 -4.88267,-14.54242 -0.40484,-1.05501 0.51887,-1.36496 2.77976,-0.93277 9.78692,1.87089 15.42243,-4.71418 15.43036,-18.03032 0.0114,-19.17907 -10.84768,-27.98594 -27.63301,-22.41075 -17.43188,5.78994 -20.08796,17.5651 -10.47491,46.43817 3.23791,9.72514 6.25845,20.38207 6.71231,23.68207 l 0.8252,6 -9.33557,7.75228 c -26.37255,21.89983 -36.08904,33.89495 -36.08904,44.55235 0,17.0418 20.1637,28.56047 40.23641,22.98537 z m -27.36309,-11.72831 c -6.84505,-7.5637 8.90827,-32.39626 26.45764,-41.70618 7.52503,-3.99202 7.97996,-3.34096 6.16979,8.82977 -3.38726,22.77435 -23.46286,43.00315 -32.62743,32.87641 z m 43.12668,-115.29502 c 0,-4.90284 1.98738,-7.6 5.6,-7.6 3.63517,0 3.22234,7.2728 -0.56334,9.92439 -4.25566,2.98078 -5.03666,2.62036 -5.03666,-2.32439 z m 75.88462,104.97741 c 28.76045,-8.54093 35.36396,-53.35825 8.84273,-60.01465 -7.37834,-1.85185 -8.19166,1.65818 -5.17908,22.3511 2.56404,17.61192 -19.56963,34.41756 -30.2942,23.00177 -12.14542,-12.92821 -1.52317,-40.13379 39.79232,-101.91563 l 20.9536,-31.33334 17.33334,-0.95645 c 36.01922,-1.98754 51.33333,-8.19435 51.33333,-20.80539 0,-10.35548 -7.903,-18.88995 -17.50143,-18.89984 l -4.83477,-0.005 2.13728,5.94351 c 2.53805,7.05803 0.20403,11.65515 -7.91902,15.59739 -9.67646,4.69614 -38.39008,4.65382 -36.49662,-0.0538 4.89543,-12.17122 1.11511,-41.2517 -6.1581,-47.3717 -5.4548,-4.58992 -12.65936,-4.87728 -11.25089,-0.44875 3.52184,11.07335 0.87687,32.11634 -5.05467,40.21431 -3.39111,4.62967 -38.6129,-2.68024 -74.08013,-15.37455 -12.00376,-4.29635 -28.50376,-9.63454 -36.66666,-11.86265 -8.16291,-2.22812 -16.64165,-4.57956 -18.84165,-5.22544 -2.2,-0.64588 -7,-1.62729 -10.66666,-2.18092 -3.66667,-0.55362 -7.56667,-1.22177 -8.66667,-1.48476 -36.75267,-8.78702 -75.84997,6.93008 -102.10023,41.04428 -17.13156,22.26374 -11.53203,24.28562 18.10024,6.53563 25.42321,-15.22873 37.85248,-18.53203 73.81615,-19.61796 28.75011,-0.86811 48.83623,1.3497 74.8505,8.26463 8.63446,2.29515 74.55515,22.16764 75.02516,22.61712 0.19716,0.18857 -7.24885,12.58153 -16.5467,27.53991 -37.8731,60.93024 -43.25709,73.08396 -41.54127,93.77453 1.84272,22.22072 27.90701,37.70687 51.6141,30.66662 z m -156.33331,-2.65001 c 31.50041,-8.85269 46.86625,-45.86888 22.39344,-53.94563 -7.27979,-2.40255 -7.9752,-1.58645 -7.49554,8.7963 0.83343,18.04078 -6.92545,30.29356 -21.94847,34.66087 -18.40724,5.35113 -18.49523,-1.35617 -0.49987,-38.10561 17.7431,-36.23429 19.59988,-45.55812 10.43179,-52.38331 -7.9213,-5.89702 -23.4167,-3.77145 -19.9348,2.73454 4.07648,7.61698 0.78753,19.41928 -12.53516,44.98211 -22.53958,43.24765 -10.68855,64.57999 29.58861,53.26073 z m -374.80643,-0.52229 c 40.5961,-9.73342 87.71546,-43.985 77.81841,-56.56706 -6.10218,-7.75766 -6.7455,-7.55189 -22.03843,7.04914 -76.7936,73.31924 -143.71662,36.77006 -98.34967,-53.71247 4.93634,-9.84532 18.58592,-31.28251 21.75989,-34.17473 0.40239,-0.36666 4.195,-5.25116 8.42802,-10.85444 35.41613,-46.88057 87.10312,-73.15932 102.19847,-51.95985 5.52695,7.76188 2.85034,12.50576 -11.2455,19.93094 -23.27225,12.25896 -19.84173,32.04318 4.31241,24.87017 32.76821,-9.73111 34.24344,-50.28689 2.37154,-65.1964 -69.57112,-32.54501 -155.55999,47.35864 -162.72523,151.20959 -3.33153,48.28616 32.3237,80.22952 77.47009,69.40511 z m 840.14236,-19.59916 c 19.2269,-9.12376 31.959,-41.16287 19.0174,-47.85526 -7.7233,-3.99388 -11.9047,-2.71948 -11.9047,3.62834 0,20.22406 -30.333,40.85633 -38.5481,26.22012 -6.07002,-10.81456 15.3771,-34.26357 42.8815,-46.88413 11.5599,-5.30436 11.8202,-5.71279 6.6666,-10.46109 -11.3279,-10.43704 -20.8222,-9.70799 -37.3603,2.86884 -6.7681,5.14697 -9.1404,6.45858 -7.8566,4.34389 4.4356,-7.30674 -4.4925,-20.66028 -15.87303,-23.74085 -28.30625,-7.66214 -58.22013,13.04671 -66.70883,46.18136 -9.11506,35.57958 17.88014,47.6426 55.16879,24.65261 l 9.63001,-5.9373 0.005,5.58876 c 0.0154,17.32488 26.67666,30.03386 44.88226,21.39471 z m -86.88726,-20.09827 c -17.37155,-4.23202 -0.27685,-36.68311 26.44661,-50.20395 24.81855,-12.55705 27.46852,17.47443 3.50003,39.66502 -10.04856,9.3032 -20.26323,12.89799 -29.94664,10.53893 z m -371.29903,-80.2035 c 9.67869,-9.67869 4.89871,-25.04085 -8.57822,-27.56913 -14.84064,-2.78413 -24.32348,17.48098 -12.93966,27.65243 6.06842,5.42213 16.0511,5.38348 21.51788,-0.0833 z"
       id="path1"
       sodipodi:nodetypes="ssssssssssscsssssssscsssssssssssscsssssssssscssssscsssssssssssssscsssssssscsssscsssssssssssssssssssssssssscsscssssscsscssssssssssssssssssssssssssssssssssssssssssscsscsssssssscssssssssssssssscssssscssssssssscsssssssssssssssscssscsssssssssssssssssssssssssssssssssssssssssssssssssssscssssssssss" />
  </g>
</svg>
